# xmcd
#
# Track frame offsets:
#	150
#	16862
#	28962
#	40882
#	55569
#	68919
#	85045
#	102533
#	115818
#	136162
#	147790
#	162778
#	179551
#	203557
#
# Disc length: 4123 seconds
#
# Revision: 1
# Processed by: cddbd v1.4PL0 Copyright (c) Steve Scherf et al.
# Submitted via: EasyCDDAExtractor 5.0.7
#
DISCID=b710190e
DTITLE=Yonder Mountain String Band and Benny Galloway - Old Hands
DYEAR=2003
DGENRE=Bluegrass
TTITLE0=Pride of Alabama
TTITLE1=Hill Country Girl
TTITLE2=Big Lights
TTITLE3=Deep Pockets
TTITLE4=Sleepy Cowboy
TTITLE5=Train Bound for Glory Land
TTITLE6=Wind Through the Willows
TTITLE7=Not Far Away
TTITLE8=And Going Away
TTITLE9=Alone and Blue
TTITLE10=Everytime
TTITLE11=Winds O' Wyoming
TTITLE12=Behold, the Rock of Ages
TTITLE13=Bonus Track
EXTD=
EXTT0=
EXTT1=
EXTT2=
EXTT3=
EXTT4=
EXTT5=
EXTT6=
EXTT7=
EXTT8=
EXTT9=
EXTT10=
EXTT11=
EXTT12=
EXTT13=
PLAYORDER=
